<svg xmlns="http://www.w3.org/2000/svg" viewBox="0 0 512 512">
<defs>
  <radialGradient id="bg" cx="50%" cy="25%" r="80%"><stop offset="0" stop-color="#2b2013"/><stop offset="1" stop-color="#070504"/></radialGradient>
  <linearGradient id="skin" x1="0" y1="0" x2="1" y2="1"><stop offset="0" stop-color="#6f4632"/><stop offset="1" stop-color="#553225"/></linearGradient>
  <linearGradient id="hair" x1="0" y1="0" x2="1" y2="1"><stop offset="0" stop-color="#262121"/><stop offset="1" stop-color="#0e0d0d"/></linearGradient>
  <filter id="shadow"><feGaussianBlur stdDeviation="12"/></filter>
</defs>
<rect width="512" height="512" fill="url(#bg)"/>
<circle cx="256" cy="210" r="176" fill="#d9b35f" opacity=".05"/>
<ellipse cx="256" cy="474" rx="170" ry="45" fill="#000" opacity=".38" filter="url(#shadow)"/>
<path d="M105 512c6-103 58-149 151-149s146 46 151 149H105Z" fill="#2d2418"/>
<path d="M220 339h72l9 57c-19 20-72 20-91 0l10-57Z" fill="#553225"/>
<ellipse cx="256" cy="235" rx="116" ry="146" fill="url(#skin)"/>
<ellipse cx="143" cy="252" rx="23" ry="35" fill="#553225"/><ellipse cx="369" cy="252" rx="23" ry="35" fill="#553225"/>
<path d="M145 181C154 106 204 72 258 72c64 0 113 35 120 107-34-16-58-42-70-67-43 27-101 37-163 13 0 18 1 37 0 56Z" fill="url(#hair)"/>
<path d="M170 219c25-16 48-18 72-4" stroke="#0e0d0d" stroke-width="10" stroke-linecap="round" fill="none" opacity=".82"/>
<path d="M271 215c25-13 49-12 70 4" stroke="#0e0d0d" stroke-width="10" stroke-linecap="round" fill="none" opacity=".82"/>
<ellipse cx="209" cy="243" rx="10" ry="7" fill="#fff" opacity=".92"/><circle cx="210" cy="243" r="5.5" fill="#2b1b16"/><circle cx="212" cy="241" r="1.5" fill="#fff"/>
<ellipse cx="302" cy="243" rx="10" ry="7" fill="#fff" opacity=".92"/><circle cx="301" cy="243" r="5.5" fill="#2b1b16"/><circle cx="303" cy="241" r="1.5" fill="#fff"/>
<path d="M258 247c-4 26-9 50-18 72 10 8 22 9 35 2" stroke="#553225" stroke-width="6" stroke-linecap="round" fill="none" opacity=".75"/>
<ellipse cx="228" cy="286" rx="18" ry="10" fill="#fff" opacity=".025"/><ellipse cx="299" cy="286" rx="18" ry="10" fill="#fff" opacity=".025"/>
<path d="M215 342c25 18 59 20 84 0-23 8-61 8-84 0Z" fill="#66383b"/>
<path d="M219 342c22 7 54 7 76 0" stroke="#3b171b" stroke-width="3" stroke-linecap="round" fill="none" opacity=".7"/>
<path d="M184 380c40 29 104 29 144 0" stroke="#553225" stroke-width="4" stroke-linecap="round" fill="none" opacity=".23"/>
<circle cx="256" cy="256" r="244" fill="none" stroke="#d9b35f" stroke-opacity=".15" stroke-width="2"/>
</svg>